<svg width="694" height="139" viewBox="0 0 694 139" fill="none" xmlns="http://www.w3.org/2000/svg">
<mask id="path-1-outside-1_311_2" maskUnits="userSpaceOnUse" x="176" y="34" width="518" height="70" fill="black">
<rect fill="white" x="176" y="34" width="518" height="70"/>
<path d="M205.96 103C200.016 103 194.86 101.646 190.494 98.9389C186.127 96.2315 182.787 92.3278 180.472 87.2278C178.157 82.1278 177 76.0833 177 69.0944C177 62.1056 178.157 56.0611 180.472 50.9611C182.787 45.7981 186.101 41.863 190.415 39.1556C194.781 36.3852 199.91 35 205.803 35C210.695 35 215.219 36.0074 219.375 38.0222C223.531 40.037 226.609 42.713 228.608 46.05C229.239 47.0574 229.555 48.0963 229.555 49.1667C229.555 50.7407 228.845 52.1574 227.424 53.4167C226.793 53.9833 226.004 54.2667 225.057 54.2667C224.268 54.2667 223.479 54.0778 222.689 53.7C221.9 53.2593 221.243 52.6611 220.717 51.9056C218.928 49.45 216.85 47.687 214.483 46.6167C212.115 45.4833 209.222 44.9167 205.803 44.9167C200.068 44.9167 195.597 47.0574 192.388 51.3389C189.179 55.5574 187.574 61.4759 187.574 69.0944C187.574 76.65 189.179 82.537 192.388 86.7556C195.649 90.9741 200.174 93.0833 205.96 93.0833C210.748 93.0833 214.483 91.9815 217.166 89.7778C219.901 87.5741 221.269 84.5204 221.269 80.6167V78.5389C221.269 77.2167 221.006 76.3037 220.48 75.8C220.006 75.2963 219.165 75.0444 217.955 75.0444H207.617C206.144 75.0444 204.987 74.6352 204.145 73.8167C203.304 72.9352 202.883 71.7389 202.883 70.2278C202.883 68.6537 203.277 67.4574 204.066 66.6389C204.908 65.7574 206.092 65.3167 207.617 65.3167H222.926C225.977 65.3167 228.213 66.1037 229.634 67.6778C231.054 69.1889 231.764 71.613 231.764 74.95V78.6333C231.764 83.4185 230.686 87.6685 228.529 91.3833C226.372 95.0352 223.321 97.9 219.375 99.9778C215.482 101.993 211.011 103 205.96 103Z"/>
<path d="M252.449 102.056C248.451 102.056 245.347 100.796 243.138 98.2778C240.928 95.7593 239.824 92.2333 239.824 87.7V49.9222C239.824 45.5148 240.876 42.0833 242.98 39.6278C245.137 37.1722 248.109 35.9444 251.897 35.9444H276.438C278.017 35.9444 279.226 36.3852 280.068 37.2667C280.91 38.0852 281.331 39.2815 281.331 40.8556C281.331 42.3667 280.884 43.563 279.989 44.4444C279.148 45.263 277.964 45.6722 276.438 45.6722H253.712C252.66 45.6722 251.818 46.0815 251.187 46.9C250.608 47.7185 250.319 48.8519 250.319 50.3V63.4278H270.441C272.019 63.4278 273.229 63.8685 274.071 64.75C274.913 65.5685 275.334 66.7648 275.334 68.3389C275.334 69.85 274.886 71.0463 273.992 71.9278C273.15 72.7463 271.967 73.1556 270.441 73.1556H250.319V87.7C250.319 89.1481 250.608 90.2815 251.187 91.1C251.818 91.9185 252.66 92.3278 253.712 92.3278H278.174C279.753 92.3278 280.963 92.7685 281.804 93.65C282.646 94.4685 283.067 95.6648 283.067 97.2389C283.067 98.75 282.62 99.9463 281.725 100.828C280.884 101.646 279.7 102.056 278.174 102.056H252.449Z"/>
<path d="M316.325 103C310.17 103 304.857 101.583 300.385 98.75C295.966 95.8537 292.599 91.8556 290.285 86.7556C287.97 81.5926 286.813 75.6741 286.813 69C286.813 62.3259 287.97 56.4389 290.285 51.3389C292.599 46.1759 295.966 42.1778 300.385 39.3444C304.857 36.4481 310.17 35 316.325 35C322.48 35 327.767 36.4481 332.186 39.3444C336.658 42.1778 340.051 46.1759 342.366 51.3389C344.681 56.4389 345.838 62.3259 345.838 69C345.838 75.6741 344.681 81.5926 342.366 86.7556C340.051 91.8556 336.658 95.8537 332.186 98.75C327.767 101.583 322.48 103 316.325 103ZM316.325 93.0833C322.323 93.0833 326.978 90.9426 330.293 86.6611C333.607 82.3167 335.264 76.4296 335.264 69C335.264 61.5074 333.528 55.6204 330.056 51.3389C326.636 47.0574 321.796 44.9167 315.536 44.9167C309.802 44.9167 305.33 47.1204 302.121 51.5278C298.965 55.8722 297.387 61.6963 297.387 69C297.387 76.4296 299.044 82.3167 302.358 86.6611C305.672 90.9426 310.328 93.0833 316.325 93.0833Z"/>
<path d="M359.083 103C357.505 103 356.242 102.496 355.295 101.489C354.348 100.481 353.875 99.0963 353.875 97.3333V49.9222C353.875 45.5148 354.927 42.0833 357.031 39.6278C359.188 37.1722 362.16 35.9444 365.948 35.9444H379.284C387.28 35.9444 393.356 37.9278 397.512 41.8944C401.668 45.8611 403.746 51.6852 403.746 59.3667C403.746 67.0481 401.721 72.8722 397.67 76.8389C393.619 80.8056 387.648 82.7889 379.757 82.7889H364.37V97.3333C364.37 99.0333 363.87 100.419 362.87 101.489C361.924 102.496 360.661 103 359.083 103ZM379.678 73.0611C388.674 73.0611 393.172 68.4963 393.172 59.3667C393.172 50.237 388.674 45.6722 379.678 45.6722H367.763C366.711 45.6722 365.869 46.0815 365.238 46.9C364.659 47.7185 364.37 48.8519 364.37 50.3V73.0611H379.678Z"/>
<path d="M439.393 103C433.237 103 427.924 101.583 423.452 98.75C419.033 95.8537 415.667 91.8556 413.352 86.7556C411.037 81.5926 409.88 75.6741 409.88 69C409.88 62.3259 411.037 56.4389 413.352 51.3389C415.667 46.1759 419.033 42.1778 423.452 39.3444C427.924 36.4481 433.237 35 439.393 35C445.548 35 450.835 36.4481 455.254 39.3444C459.725 42.1778 463.118 46.1759 465.433 51.3389C467.748 56.4389 468.905 62.3259 468.905 69C468.905 75.6741 467.748 81.5926 465.433 86.7556C463.118 91.8556 459.725 95.8537 455.254 98.75C450.835 101.583 445.548 103 439.393 103ZM439.393 93.0833C445.39 93.0833 450.045 90.9426 453.36 86.6611C456.674 82.3167 458.331 76.4296 458.331 69C458.331 61.5074 456.595 55.6204 453.123 51.3389C449.704 47.0574 444.864 44.9167 438.603 44.9167C432.869 44.9167 428.398 47.1204 425.189 51.5278C422.032 55.8722 420.454 61.6963 420.454 69C420.454 76.4296 422.111 82.3167 425.425 86.6611C428.74 90.9426 433.395 93.0833 439.393 93.0833Z"/>
<path d="M500.979 103C497.296 103 494.245 101.489 491.825 98.4667C489.405 95.3815 487.275 90.313 485.433 83.2611L474.465 41.5167C474.254 40.7611 474.149 39.9741 474.149 39.1556C474.149 36.3852 475.78 35 479.042 35C480.672 35 481.909 35.3778 482.75 36.1333C483.645 36.8889 484.302 38.1167 484.723 39.8167L495.613 82.3167C496.612 86.1574 497.533 88.9278 498.375 90.6278C499.216 92.3278 500.084 93.1778 500.979 93.1778C501.873 93.1778 502.741 92.3278 503.583 90.6278C504.425 88.9278 505.345 86.1574 506.345 82.3167L517.234 39.8167C517.655 38.1167 518.287 36.8889 519.128 36.1333C520.023 35.3778 521.285 35 522.916 35C526.178 35 527.809 36.3852 527.809 39.1556C527.809 39.9741 527.703 40.7611 527.493 41.5167L516.524 83.2611C514.683 90.313 512.552 95.3815 510.132 98.4667C507.713 101.489 504.661 103 500.979 103Z"/>
<path d="M540.707 103C539.129 103 537.867 102.496 536.92 101.489C535.973 100.481 535.499 99.0963 535.499 97.3333V61.7278C535.499 53.3537 537.682 46.8056 542.049 42.0833C546.415 37.3611 552.465 35 560.198 35C567.932 35 573.982 37.3611 578.348 42.0833C582.714 46.8056 584.898 53.3537 584.898 61.7278V97.3333C584.898 99.0963 584.424 100.481 583.477 101.489C582.53 102.496 581.268 103 579.689 103C578.111 103 576.822 102.496 575.823 101.489C574.876 100.419 574.402 99.0333 574.402 97.3333V61.4444C574.402 56.0926 573.192 52 570.772 49.1667C568.353 46.3333 564.828 44.9167 560.198 44.9167C555.569 44.9167 552.044 46.3333 549.624 49.1667C547.204 52 545.994 56.0926 545.994 61.4444V97.3333C545.994 99.0333 545.495 100.419 544.495 101.489C543.548 102.496 542.286 103 540.707 103Z"/>
<path d="M605.93 102.056C601.932 102.056 598.828 100.796 596.619 98.2778C594.409 95.7593 593.305 92.2333 593.305 87.7V49.9222C593.305 45.5148 594.357 42.0833 596.461 39.6278C598.618 37.1722 601.59 35.9444 605.378 35.9444H629.919C631.497 35.9444 632.707 36.3852 633.549 37.2667C634.391 38.0852 634.812 39.2815 634.812 40.8556C634.812 42.3667 634.365 43.563 633.47 44.4444C632.629 45.263 631.445 45.6722 629.919 45.6722H607.193C606.141 45.6722 605.299 46.0815 604.668 46.9C604.089 47.7185 603.8 48.8519 603.8 50.3V63.4278H623.922C625.5 63.4278 626.71 63.8685 627.552 64.75C628.394 65.5685 628.815 66.7648 628.815 68.3389C628.815 69.85 628.367 71.0463 627.473 71.9278C626.631 72.7463 625.448 73.1556 623.922 73.1556H603.8V87.7C603.8 89.1481 604.089 90.2815 604.668 91.1C605.299 91.9185 606.141 92.3278 607.193 92.3278H631.655C633.234 92.3278 634.444 92.7685 635.285 93.65C636.127 94.4685 636.548 95.6648 636.548 97.2389C636.548 98.75 636.101 99.9463 635.206 100.828C634.365 101.646 633.181 102.056 631.655 102.056H605.93Z"/>
<path d="M667.591 103C666.012 103 664.75 102.496 663.803 101.489C662.856 100.481 662.383 99.0963 662.383 97.3333V45.6722H647.153C645.627 45.6722 644.417 45.263 643.523 44.4444C642.681 43.563 642.26 42.3667 642.26 40.8556C642.26 39.2815 642.681 38.0852 643.523 37.2667C644.365 36.3852 645.575 35.9444 647.153 35.9444H688.107C689.686 35.9444 690.896 36.3852 691.737 37.2667C692.579 38.0852 693 39.2815 693 40.8556C693 42.3667 692.553 43.563 691.658 44.4444C690.817 45.263 689.633 45.6722 688.107 45.6722H672.878V97.3333C672.878 99.0333 672.378 100.419 671.378 101.489C670.431 102.496 669.169 103 667.591 103Z"/>
</mask>
<path d="M205.96 103C200.016 103 194.86 101.646 190.494 98.9389C186.127 96.2315 182.787 92.3278 180.472 87.2278C178.157 82.1278 177 76.0833 177 69.0944C177 62.1056 178.157 56.0611 180.472 50.9611C182.787 45.7981 186.101 41.863 190.415 39.1556C194.781 36.3852 199.91 35 205.803 35C210.695 35 215.219 36.0074 219.375 38.0222C223.531 40.037 226.609 42.713 228.608 46.05C229.239 47.0574 229.555 48.0963 229.555 49.1667C229.555 50.7407 228.845 52.1574 227.424 53.4167C226.793 53.9833 226.004 54.2667 225.057 54.2667C224.268 54.2667 223.479 54.0778 222.689 53.7C221.9 53.2593 221.243 52.6611 220.717 51.9056C218.928 49.45 216.85 47.687 214.483 46.6167C212.115 45.4833 209.222 44.9167 205.803 44.9167C200.068 44.9167 195.597 47.0574 192.388 51.3389C189.179 55.5574 187.574 61.4759 187.574 69.0944C187.574 76.65 189.179 82.537 192.388 86.7556C195.649 90.9741 200.174 93.0833 205.96 93.0833C210.748 93.0833 214.483 91.9815 217.166 89.7778C219.901 87.5741 221.269 84.5204 221.269 80.6167V78.5389C221.269 77.2167 221.006 76.3037 220.48 75.8C220.006 75.2963 219.165 75.0444 217.955 75.0444H207.617C206.144 75.0444 204.987 74.6352 204.145 73.8167C203.304 72.9352 202.883 71.7389 202.883 70.2278C202.883 68.6537 203.277 67.4574 204.066 66.6389C204.908 65.7574 206.092 65.3167 207.617 65.3167H222.926C225.977 65.3167 228.213 66.1037 229.634 67.6778C231.054 69.1889 231.764 71.613 231.764 74.95V78.6333C231.764 83.4185 230.686 87.6685 228.529 91.3833C226.372 95.0352 223.321 97.9 219.375 99.9778C215.482 101.993 211.011 103 205.96 103Z" fill="#092540"/>
<path d="M252.449 102.056C248.451 102.056 245.347 100.796 243.138 98.2778C240.928 95.7593 239.824 92.2333 239.824 87.7V49.9222C239.824 45.5148 240.876 42.0833 242.98 39.6278C245.137 37.1722 248.109 35.9444 251.897 35.9444H276.438C278.017 35.9444 279.226 36.3852 280.068 37.2667C280.91 38.0852 281.331 39.2815 281.331 40.8556C281.331 42.3667 280.884 43.563 279.989 44.4444C279.148 45.263 277.964 45.6722 276.438 45.6722H253.712C252.66 45.6722 251.818 46.0815 251.187 46.9C250.608 47.7185 250.319 48.8519 250.319 50.3V63.4278H270.441C272.019 63.4278 273.229 63.8685 274.071 64.75C274.913 65.5685 275.334 66.7648 275.334 68.3389C275.334 69.85 274.886 71.0463 273.992 71.9278C273.15 72.7463 271.967 73.1556 270.441 73.1556H250.319V87.7C250.319 89.1481 250.608 90.2815 251.187 91.1C251.818 91.9185 252.66 92.3278 253.712 92.3278H278.174C279.753 92.3278 280.963 92.7685 281.804 93.65C282.646 94.4685 283.067 95.6648 283.067 97.2389C283.067 98.75 282.62 99.9463 281.725 100.828C280.884 101.646 279.7 102.056 278.174 102.056H252.449Z" fill="#092540"/>
<path d="M316.325 103C310.17 103 304.857 101.583 300.385 98.75C295.966 95.8537 292.599 91.8556 290.285 86.7556C287.97 81.5926 286.813 75.6741 286.813 69C286.813 62.3259 287.97 56.4389 290.285 51.3389C292.599 46.1759 295.966 42.1778 300.385 39.3444C304.857 36.4481 310.17 35 316.325 35C322.48 35 327.767 36.4481 332.186 39.3444C336.658 42.1778 340.051 46.1759 342.366 51.3389C344.681 56.4389 345.838 62.3259 345.838 69C345.838 75.6741 344.681 81.5926 342.366 86.7556C340.051 91.8556 336.658 95.8537 332.186 98.75C327.767 101.583 322.48 103 316.325 103ZM316.325 93.0833C322.323 93.0833 326.978 90.9426 330.293 86.6611C333.607 82.3167 335.264 76.4296 335.264 69C335.264 61.5074 333.528 55.6204 330.056 51.3389C326.636 47.0574 321.796 44.9167 315.536 44.9167C309.802 44.9167 305.33 47.1204 302.121 51.5278C298.965 55.8722 297.387 61.6963 297.387 69C297.387 76.4296 299.044 82.3167 302.358 86.6611C305.672 90.9426 310.328 93.0833 316.325 93.0833Z" fill="#092540"/>
<path d="M359.083 103C357.505 103 356.242 102.496 355.295 101.489C354.348 100.481 353.875 99.0963 353.875 97.3333V49.9222C353.875 45.5148 354.927 42.0833 357.031 39.6278C359.188 37.1722 362.16 35.9444 365.948 35.9444H379.284C387.28 35.9444 393.356 37.9278 397.512 41.8944C401.668 45.8611 403.746 51.6852 403.746 59.3667C403.746 67.0481 401.721 72.8722 397.67 76.8389C393.619 80.8056 387.648 82.7889 379.757 82.7889H364.37V97.3333C364.37 99.0333 363.87 100.419 362.87 101.489C361.924 102.496 360.661 103 359.083 103ZM379.678 73.0611C388.674 73.0611 393.172 68.4963 393.172 59.3667C393.172 50.237 388.674 45.6722 379.678 45.6722H367.763C366.711 45.6722 365.869 46.0815 365.238 46.9C364.659 47.7185 364.37 48.8519 364.37 50.3V73.0611H379.678Z" fill="#092540"/>
<path d="M439.393 103C433.237 103 427.924 101.583 423.452 98.75C419.033 95.8537 415.667 91.8556 413.352 86.7556C411.037 81.5926 409.88 75.6741 409.88 69C409.88 62.3259 411.037 56.4389 413.352 51.3389C415.667 46.1759 419.033 42.1778 423.452 39.3444C427.924 36.4481 433.237 35 439.393 35C445.548 35 450.835 36.4481 455.254 39.3444C459.725 42.1778 463.118 46.1759 465.433 51.3389C467.748 56.4389 468.905 62.3259 468.905 69C468.905 75.6741 467.748 81.5926 465.433 86.7556C463.118 91.8556 459.725 95.8537 455.254 98.75C450.835 101.583 445.548 103 439.393 103ZM439.393 93.0833C445.39 93.0833 450.045 90.9426 453.36 86.6611C456.674 82.3167 458.331 76.4296 458.331 69C458.331 61.5074 456.595 55.6204 453.123 51.3389C449.704 47.0574 444.864 44.9167 438.603 44.9167C432.869 44.9167 428.398 47.1204 425.189 51.5278C422.032 55.8722 420.454 61.6963 420.454 69C420.454 76.4296 422.111 82.3167 425.425 86.6611C428.74 90.9426 433.395 93.0833 439.393 93.0833Z" fill="#092540"/>
<path d="M500.979 103C497.296 103 494.245 101.489 491.825 98.4667C489.405 95.3815 487.275 90.313 485.433 83.2611L474.465 41.5167C474.254 40.7611 474.149 39.9741 474.149 39.1556C474.149 36.3852 475.78 35 479.042 35C480.672 35 481.909 35.3778 482.75 36.1333C483.645 36.8889 484.302 38.1167 484.723 39.8167L495.613 82.3167C496.612 86.1574 497.533 88.9278 498.375 90.6278C499.216 92.3278 500.084 93.1778 500.979 93.1778C501.873 93.1778 502.741 92.3278 503.583 90.6278C504.425 88.9278 505.345 86.1574 506.345 82.3167L517.234 39.8167C517.655 38.1167 518.287 36.8889 519.128 36.1333C520.023 35.3778 521.285 35 522.916 35C526.178 35 527.809 36.3852 527.809 39.1556C527.809 39.9741 527.703 40.7611 527.493 41.5167L516.524 83.2611C514.683 90.313 512.552 95.3815 510.132 98.4667C507.713 101.489 504.661 103 500.979 103Z" fill="#092540"/>
<path d="M540.707 103C539.129 103 537.867 102.496 536.92 101.489C535.973 100.481 535.499 99.0963 535.499 97.3333V61.7278C535.499 53.3537 537.682 46.8056 542.049 42.0833C546.415 37.3611 552.465 35 560.198 35C567.932 35 573.982 37.3611 578.348 42.0833C582.714 46.8056 584.898 53.3537 584.898 61.7278V97.3333C584.898 99.0963 584.424 100.481 583.477 101.489C582.53 102.496 581.268 103 579.689 103C578.111 103 576.822 102.496 575.823 101.489C574.876 100.419 574.402 99.0333 574.402 97.3333V61.4444C574.402 56.0926 573.192 52 570.772 49.1667C568.353 46.3333 564.828 44.9167 560.198 44.9167C555.569 44.9167 552.044 46.3333 549.624 49.1667C547.204 52 545.994 56.0926 545.994 61.4444V97.3333C545.994 99.0333 545.495 100.419 544.495 101.489C543.548 102.496 542.286 103 540.707 103Z" fill="#092540"/>
<path d="M605.93 102.056C601.932 102.056 598.828 100.796 596.619 98.2778C594.409 95.7593 593.305 92.2333 593.305 87.7V49.9222C593.305 45.5148 594.357 42.0833 596.461 39.6278C598.618 37.1722 601.59 35.9444 605.378 35.9444H629.919C631.497 35.9444 632.707 36.3852 633.549 37.2667C634.391 38.0852 634.812 39.2815 634.812 40.8556C634.812 42.3667 634.365 43.563 633.47 44.4444C632.629 45.263 631.445 45.6722 629.919 45.6722H607.193C606.141 45.6722 605.299 46.0815 604.668 46.9C604.089 47.7185 603.8 48.8519 603.8 50.3V63.4278H623.922C625.5 63.4278 626.71 63.8685 627.552 64.75C628.394 65.5685 628.815 66.7648 628.815 68.3389C628.815 69.85 628.367 71.0463 627.473 71.9278C626.631 72.7463 625.448 73.1556 623.922 73.1556H603.8V87.7C603.8 89.1481 604.089 90.2815 604.668 91.1C605.299 91.9185 606.141 92.3278 607.193 92.3278H631.655C633.234 92.3278 634.444 92.7685 635.285 93.65C636.127 94.4685 636.548 95.6648 636.548 97.2389C636.548 98.75 636.101 99.9463 635.206 100.828C634.365 101.646 633.181 102.056 631.655 102.056H605.93Z" fill="#092540"/>
<path d="M667.591 103C666.012 103 664.75 102.496 663.803 101.489C662.856 100.481 662.383 99.0963 662.383 97.3333V45.6722H647.153C645.627 45.6722 644.417 45.263 643.523 44.4444C642.681 43.563 642.26 42.3667 642.26 40.8556C642.26 39.2815 642.681 38.0852 643.523 37.2667C644.365 36.3852 645.575 35.9444 647.153 35.9444H688.107C689.686 35.9444 690.896 36.3852 691.737 37.2667C692.579 38.0852 693 39.2815 693 40.8556C693 42.3667 692.553 43.563 691.658 44.4444C690.817 45.263 689.633 45.6722 688.107 45.6722H672.878V97.3333C672.878 99.0333 672.378 100.419 671.378 101.489C670.431 102.496 669.169 103 667.591 103Z" fill="#092540"/>
<path d="M205.96 103C200.016 103 194.86 101.646 190.494 98.9389C186.127 96.2315 182.787 92.3278 180.472 87.2278C178.157 82.1278 177 76.0833 177 69.0944C177 62.1056 178.157 56.0611 180.472 50.9611C182.787 45.7981 186.101 41.863 190.415 39.1556C194.781 36.3852 199.91 35 205.803 35C210.695 35 215.219 36.0074 219.375 38.0222C223.531 40.037 226.609 42.713 228.608 46.05C229.239 47.0574 229.555 48.0963 229.555 49.1667C229.555 50.7407 228.845 52.1574 227.424 53.4167C226.793 53.9833 226.004 54.2667 225.057 54.2667C224.268 54.2667 223.479 54.0778 222.689 53.7C221.9 53.2593 221.243 52.6611 220.717 51.9056C218.928 49.45 216.85 47.687 214.483 46.6167C212.115 45.4833 209.222 44.9167 205.803 44.9167C200.068 44.9167 195.597 47.0574 192.388 51.3389C189.179 55.5574 187.574 61.4759 187.574 69.0944C187.574 76.65 189.179 82.537 192.388 86.7556C195.649 90.9741 200.174 93.0833 205.96 93.0833C210.748 93.0833 214.483 91.9815 217.166 89.7778C219.901 87.5741 221.269 84.5204 221.269 80.6167V78.5389C221.269 77.2167 221.006 76.3037 220.48 75.8C220.006 75.2963 219.165 75.0444 217.955 75.0444H207.617C206.144 75.0444 204.987 74.6352 204.145 73.8167C203.304 72.9352 202.883 71.7389 202.883 70.2278C202.883 68.6537 203.277 67.4574 204.066 66.6389C204.908 65.7574 206.092 65.3167 207.617 65.3167H222.926C225.977 65.3167 228.213 66.1037 229.634 67.6778C231.054 69.1889 231.764 71.613 231.764 74.95V78.6333C231.764 83.4185 230.686 87.6685 228.529 91.3833C226.372 95.0352 223.321 97.9 219.375 99.9778C215.482 101.993 211.011 103 205.96 103Z" stroke="#F4F7F4" stroke-width="2" mask="url(#path-1-outside-1_311_2)"/>
<path d="M252.449 102.056C248.451 102.056 245.347 100.796 243.138 98.2778C240.928 95.7593 239.824 92.2333 239.824 87.7V49.9222C239.824 45.5148 240.876 42.0833 242.98 39.6278C245.137 37.1722 248.109 35.9444 251.897 35.9444H276.438C278.017 35.9444 279.226 36.3852 280.068 37.2667C280.91 38.0852 281.331 39.2815 281.331 40.8556C281.331 42.3667 280.884 43.563 279.989 44.4444C279.148 45.263 277.964 45.6722 276.438 45.6722H253.712C252.66 45.6722 251.818 46.0815 251.187 46.9C250.608 47.7185 250.319 48.8519 250.319 50.3V63.4278H270.441C272.019 63.4278 273.229 63.8685 274.071 64.75C274.913 65.5685 275.334 66.7648 275.334 68.3389C275.334 69.85 274.886 71.0463 273.992 71.9278C273.15 72.7463 271.967 73.1556 270.441 73.1556H250.319V87.7C250.319 89.1481 250.608 90.2815 251.187 91.1C251.818 91.9185 252.66 92.3278 253.712 92.3278H278.174C279.753 92.3278 280.963 92.7685 281.804 93.65C282.646 94.4685 283.067 95.6648 283.067 97.2389C283.067 98.75 282.62 99.9463 281.725 100.828C280.884 101.646 279.7 102.056 278.174 102.056H252.449Z" stroke="#F4F7F4" stroke-width="2" mask="url(#path-1-outside-1_311_2)"/>
<path d="M316.325 103C310.17 103 304.857 101.583 300.385 98.75C295.966 95.8537 292.599 91.8556 290.285 86.7556C287.97 81.5926 286.813 75.6741 286.813 69C286.813 62.3259 287.97 56.4389 290.285 51.3389C292.599 46.1759 295.966 42.1778 300.385 39.3444C304.857 36.4481 310.17 35 316.325 35C322.48 35 327.767 36.4481 332.186 39.3444C336.658 42.1778 340.051 46.1759 342.366 51.3389C344.681 56.4389 345.838 62.3259 345.838 69C345.838 75.6741 344.681 81.5926 342.366 86.7556C340.051 91.8556 336.658 95.8537 332.186 98.75C327.767 101.583 322.48 103 316.325 103ZM316.325 93.0833C322.323 93.0833 326.978 90.9426 330.293 86.6611C333.607 82.3167 335.264 76.4296 335.264 69C335.264 61.5074 333.528 55.6204 330.056 51.3389C326.636 47.0574 321.796 44.9167 315.536 44.9167C309.802 44.9167 305.33 47.1204 302.121 51.5278C298.965 55.8722 297.387 61.6963 297.387 69C297.387 76.4296 299.044 82.3167 302.358 86.6611C305.672 90.9426 310.328 93.0833 316.325 93.0833Z" stroke="#F4F7F4" stroke-width="2" mask="url(#path-1-outside-1_311_2)"/>
<path d="M359.083 103C357.505 103 356.242 102.496 355.295 101.489C354.348 100.481 353.875 99.0963 353.875 97.3333V49.9222C353.875 45.5148 354.927 42.0833 357.031 39.6278C359.188 37.1722 362.16 35.9444 365.948 35.9444H379.284C387.28 35.9444 393.356 37.9278 397.512 41.8944C401.668 45.8611 403.746 51.6852 403.746 59.3667C403.746 67.0481 401.721 72.8722 397.67 76.8389C393.619 80.8056 387.648 82.7889 379.757 82.7889H364.37V97.3333C364.37 99.0333 363.87 100.419 362.87 101.489C361.924 102.496 360.661 103 359.083 103ZM379.678 73.0611C388.674 73.0611 393.172 68.4963 393.172 59.3667C393.172 50.237 388.674 45.6722 379.678 45.6722H367.763C366.711 45.6722 365.869 46.0815 365.238 46.9C364.659 47.7185 364.37 48.8519 364.37 50.3V73.0611H379.678Z" stroke="#F4F7F4" stroke-width="2" mask="url(#path-1-outside-1_311_2)"/>
<path d="M439.393 103C433.237 103 427.924 101.583 423.452 98.75C419.033 95.8537 415.667 91.8556 413.352 86.7556C411.037 81.5926 409.88 75.6741 409.88 69C409.88 62.3259 411.037 56.4389 413.352 51.3389C415.667 46.1759 419.033 42.1778 423.452 39.3444C427.924 36.4481 433.237 35 439.393 35C445.548 35 450.835 36.4481 455.254 39.3444C459.725 42.1778 463.118 46.1759 465.433 51.3389C467.748 56.4389 468.905 62.3259 468.905 69C468.905 75.6741 467.748 81.5926 465.433 86.7556C463.118 91.8556 459.725 95.8537 455.254 98.75C450.835 101.583 445.548 103 439.393 103ZM439.393 93.0833C445.39 93.0833 450.045 90.9426 453.36 86.6611C456.674 82.3167 458.331 76.4296 458.331 69C458.331 61.5074 456.595 55.6204 453.123 51.3389C449.704 47.0574 444.864 44.9167 438.603 44.9167C432.869 44.9167 428.398 47.1204 425.189 51.5278C422.032 55.8722 420.454 61.6963 420.454 69C420.454 76.4296 422.111 82.3167 425.425 86.6611C428.74 90.9426 433.395 93.0833 439.393 93.0833Z" stroke="#F4F7F4" stroke-width="2" mask="url(#path-1-outside-1_311_2)"/>
<path d="M500.979 103C497.296 103 494.245 101.489 491.825 98.4667C489.405 95.3815 487.275 90.313 485.433 83.2611L474.465 41.5167C474.254 40.7611 474.149 39.9741 474.149 39.1556C474.149 36.3852 475.78 35 479.042 35C480.672 35 481.909 35.3778 482.75 36.1333C483.645 36.8889 484.302 38.1167 484.723 39.8167L495.613 82.3167C496.612 86.1574 497.533 88.9278 498.375 90.6278C499.216 92.3278 500.084 93.1778 500.979 93.1778C501.873 93.1778 502.741 92.3278 503.583 90.6278C504.425 88.9278 505.345 86.1574 506.345 82.3167L517.234 39.8167C517.655 38.1167 518.287 36.8889 519.128 36.1333C520.023 35.3778 521.285 35 522.916 35C526.178 35 527.809 36.3852 527.809 39.1556C527.809 39.9741 527.703 40.7611 527.493 41.5167L516.524 83.2611C514.683 90.313 512.552 95.3815 510.132 98.4667C507.713 101.489 504.661 103 500.979 103Z" stroke="#F4F7F4" stroke-width="2" mask="url(#path-1-outside-1_311_2)"/>
<path d="M540.707 103C539.129 103 537.867 102.496 536.92 101.489C535.973 100.481 535.499 99.0963 535.499 97.3333V61.7278C535.499 53.3537 537.682 46.8056 542.049 42.0833C546.415 37.3611 552.465 35 560.198 35C567.932 35 573.982 37.3611 578.348 42.0833C582.714 46.8056 584.898 53.3537 584.898 61.7278V97.3333C584.898 99.0963 584.424 100.481 583.477 101.489C582.53 102.496 581.268 103 579.689 103C578.111 103 576.822 102.496 575.823 101.489C574.876 100.419 574.402 99.0333 574.402 97.3333V61.4444C574.402 56.0926 573.192 52 570.772 49.1667C568.353 46.3333 564.828 44.9167 560.198 44.9167C555.569 44.9167 552.044 46.3333 549.624 49.1667C547.204 52 545.994 56.0926 545.994 61.4444V97.3333C545.994 99.0333 545.495 100.419 544.495 101.489C543.548 102.496 542.286 103 540.707 103Z" stroke="#F4F7F4" stroke-width="2" mask="url(#path-1-outside-1_311_2)"/>
<path d="M605.93 102.056C601.932 102.056 598.828 100.796 596.619 98.2778C594.409 95.7593 593.305 92.2333 593.305 87.7V49.9222C593.305 45.5148 594.357 42.0833 596.461 39.6278C598.618 37.1722 601.59 35.9444 605.378 35.9444H629.919C631.497 35.9444 632.707 36.3852 633.549 37.2667C634.391 38.0852 634.812 39.2815 634.812 40.8556C634.812 42.3667 634.365 43.563 633.47 44.4444C632.629 45.263 631.445 45.6722 629.919 45.6722H607.193C606.141 45.6722 605.299 46.0815 604.668 46.9C604.089 47.7185 603.8 48.8519 603.8 50.3V63.4278H623.922C625.5 63.4278 626.71 63.8685 627.552 64.75C628.394 65.5685 628.815 66.7648 628.815 68.3389C628.815 69.85 628.367 71.0463 627.473 71.9278C626.631 72.7463 625.448 73.1556 623.922 73.1556H603.8V87.7C603.8 89.1481 604.089 90.2815 604.668 91.1C605.299 91.9185 606.141 92.3278 607.193 92.3278H631.655C633.234 92.3278 634.444 92.7685 635.285 93.65C636.127 94.4685 636.548 95.6648 636.548 97.2389C636.548 98.75 636.101 99.9463 635.206 100.828C634.365 101.646 633.181 102.056 631.655 102.056H605.93Z" stroke="#F4F7F4" stroke-width="2" mask="url(#path-1-outside-1_311_2)"/>
<path d="M667.591 103C666.012 103 664.75 102.496 663.803 101.489C662.856 100.481 662.383 99.0963 662.383 97.3333V45.6722H647.153C645.627 45.6722 644.417 45.263 643.523 44.4444C642.681 43.563 642.26 42.3667 642.26 40.8556C642.26 39.2815 642.681 38.0852 643.523 37.2667C644.365 36.3852 645.575 35.9444 647.153 35.9444H688.107C689.686 35.9444 690.896 36.3852 691.737 37.2667C692.579 38.0852 693 39.2815 693 40.8556C693 42.3667 692.553 43.563 691.658 44.4444C690.817 45.263 689.633 45.6722 688.107 45.6722H672.878V97.3333C672.878 99.0333 672.378 100.419 671.378 101.489C670.431 102.496 669.169 103 667.591 103Z" stroke="#F4F7F4" stroke-width="2" mask="url(#path-1-outside-1_311_2)"/>
<path d="M121.804 57.3146L121.803 57.3148L117.932 59.3832L117.932 59.3832C117.409 59.663 116.829 59.7917 116.248 59.7591C116.243 59.7566 116.235 59.7532 116.225 59.7485C116.18 59.727 116.115 59.6901 116.028 59.6339C115.856 59.5221 115.631 59.3543 115.365 59.1362C114.834 58.7015 114.168 58.0905 113.479 57.388C112.089 55.9702 110.665 54.2407 110.044 52.8783C109.395 51.456 108.96 50.1814 108.722 49.2866C108.668 49.0814 108.625 48.8997 108.592 48.7432V48.0076V43.5727C108.592 41.0287 106.653 38.9091 104.194 38.9091H101.656C100.766 38.9091 99.9055 38.5325 99.2645 37.8479L97.5241 35.9891C97.1173 35.5545 96.6326 35.2079 96.0966 34.9708C95.5606 34.7336 94.9848 34.6111 94.4024 34.6112C94.4024 34.6112 94.4024 34.6112 94.4023 34.6112H71.7536C69.9073 34.6112 68.3552 33.0024 68.3552 30.9476V29.7657C68.3552 28.0622 69.4392 26.6098 70.9373 26.2087L74.5712 25.2391L74.5719 25.2389C75.6398 24.9522 76.5628 24.256 77.1653 23.2908L79.1974 20.038L79.1976 20.0376C79.8334 19.018 80.8947 18.4196 82.0154 18.4196H88.1045C90.5641 18.4196 92.503 16.3 92.503 13.756V5.95686C109.614 12.5374 127.561 27.6114 132.467 47.5076H128.093C125.633 47.5076 123.694 49.6272 123.694 52.1712V54.0328C123.694 55.4373 122.95 56.7034 121.804 57.3146Z" fill="#092540" stroke="#092540"/>
<path d="M40.2656 7.1573L32.4361 11.3904C32.4361 11.3904 22.8949 16.8582 24.9795 17.5478C27.0641 18.2373 29.5194 15.4816 29.5194 15.4816C29.5194 15.4816 31.8357 16.1711 34.8467 14.3322C37.8576 12.4933 39.9424 12.4933 39.9424 12.4933C39.9424 12.4933 47.1225 10.1946 47.5859 12.4933C48.0492 14.792 52.4499 10.1946 52.4499 10.1946C52.4499 10.1946 56.8509 7.43624 58.0089 8.81544C59.1668 10.1946 67.0421 8.81544 67.0421 8.81544C67.0421 8.81544 69.8214 10.1946 74.6856 10.1946C79.5498 10.1946 76.5387 8.12584 80.4761 7.43624C84.4136 6.74665 83.7188 2.3792 83.7188 2.3792L77.5488 1.76966L65.6182 1L52.4499 2.92416L40.2656 7.1573Z" fill="#092540" stroke="#092540"/>
<path d="M135.484 81.3027C135.484 87.2023 129.745 99.5169 129.745 99.5169L122.662 111.831L114.087 120.298L102.156 129.534L87.2421 135.306C87.2421 135.306 80.8293 129.314 81.2772 126.84C81.725 124.366 86.4459 118.634 86.4459 118.634C86.4459 118.634 87.2394 107.563 90.5981 109.138C93.9568 110.712 94.4092 103.025 96.5634 100.287C98.7176 97.5485 103.911 95.2459 110.181 93.6717C116.451 92.0974 111.525 87.5996 114.659 86.2503C117.794 84.901 121.377 83.7765 121.377 83.7765C123.565 82.2632 124.528 81.1806 122.944 76.3552C123.019 75.0058 123.614 71.1899 124.736 71.8574C125.436 72.274 128.025 70.2752 129.438 68.9338L130.557 64.2112C131.765 62.652 134.651 61.156 136.456 61.8034V66.0365C136.456 69.1765 137.034 73.2263 136.456 76.3552C135.962 79.0347 135.484 81.3027 135.484 81.3027Z" fill="#092540"/>
<path d="M135.484 81.3027C135.484 87.2023 129.745 99.5169 129.745 99.5169L122.662 111.831L114.087 120.298L102.156 129.534L87.2421 135.306C87.2421 135.306 80.8293 129.314 81.2772 126.84C81.725 124.366 86.4459 118.634 86.4459 118.634C86.4459 118.634 87.2394 107.563 90.5981 109.138C93.9568 110.712 94.4092 103.025 96.5634 100.287C98.7176 97.5485 103.911 95.2459 110.181 93.6717C116.451 92.0974 111.525 87.5996 114.659 86.2503C117.794 84.901 121.377 83.7765 121.377 83.7765C123.565 82.2632 124.528 81.1806 122.944 76.3552C123.019 75.0058 123.614 71.1899 124.736 71.8574C125.436 72.274 128.025 70.2752 129.438 68.9338L130.557 64.2112C131.765 62.652 134.651 61.156 136.456 61.8034C136.456 61.8034 136.456 64.2111 136.456 66.0365C136.456 69.1765 137.034 73.2263 136.456 76.3552M135.484 81.3027C135.484 81.3027 135.962 79.0347 136.456 76.3552M135.484 81.3027L136.456 76.3552" stroke="#092540"/>
<path d="M58.9072 124.146C58.9072 124.146 55.2301 119.381 48.2815 134.782L58.1616 137.23L69.8223 138H72.3292C72.3292 138 69.8223 138 68.6642 131.564C67.5061 125.127 58.9072 124.146 58.9072 124.146Z" fill="#092540" stroke="#092540"/>
<path fill-rule="evenodd" clip-rule="evenodd" d="M16.8941 24.8595C15.7129 28.0208 13.8345 34.7696 15.4558 42.7085C17.7091 53.742 20.9512 56.2705 28.0742 60.1782C28.2 60.2473 28.3282 60.318 28.4591 60.3903C31.8638 62.2709 37.1311 65.1803 51.3706 64.7756C67.5816 64.3148 90.7157 62.7068 90.7157 62.7068C97.4756 62.7068 107.841 60.1782 107.841 60.1782C107.841 60.1782 98.0874 72.1204 90.7157 78.5675C82.3406 85.8921 67.2815 94.6581 67.2815 94.6581L53.7617 100.635C53.7617 100.635 47.2272 102.933 37.538 104.312C32.6552 105.008 29.9821 103.829 28.2832 103.079C26.6109 102.342 25.8825 102.02 24.9196 104.312C24.4055 105.536 24.5268 106.301 24.6946 107.358C24.7982 108.011 24.9196 108.776 24.9196 109.829C24.9196 112.588 28.0742 118.564 28.0742 118.564L31.091 124.541L33.0315 128.448C33.0315 128.651 32.8113 128.655 32.4212 128.5C21.8713 121.93 13.2319 112.564 7.53124 101.433C7.08227 100.35 6.65617 99.3466 6.24488 98.3784C5.03361 95.5271 3.95082 92.9782 2.79069 89.5587C1.32759 84.5869 0.409768 79.3805 0.106691 74.0091C0.0518714 72.4471 0.0129526 70.8281 0.000183105 69.2631C0.0383681 65.9012 0.317131 62.5972 0.820009 59.3677C1.06073 58.4271 1.22992 57.3719 1.39036 56.1961C3.80771 44.3566 9.25925 33.6264 16.8941 24.8595Z" fill="#FF7B1C"/>
<ellipse cx="37.8553" cy="41.4099" rx="16.2237" ry="16.5503" fill="#16DAE4"/>
</svg>
